<svg width="100%" height="100%" viewBox="0 0 32 32" fill="none" xmlns="http://www.w3.org/2000/svg">
<path fill-rule="evenodd" clip-rule="evenodd" d="M31.1058 0.89387C29.914 -0.297957 27.9816 -0.297956 26.7898 0.893871L16 11.6836L5.21059 0.894217C4.01876 -0.29761 2.08643 -0.297611 0.894604 0.894216C-0.297223 2.08604 -0.297222 4.01838 0.894605 5.2102L11.684 15.9996L0.893871 26.7898C-0.297957 27.9816 -0.297957 29.914 0.89387 31.1058C2.0857 32.2976 4.01803 32.2976 5.20986 31.1058L16 20.3156L26.7905 31.1061C27.9824 32.298 29.9147 32.298 31.1065 31.1061C32.2983 29.9143 32.2983 27.982 31.1065 26.7901L20.316 15.9996L31.1058 5.20986C32.2976 4.01803 32.2976 2.0857 31.1058 0.89387Z" fill="currentColor"/>
</svg>