<svg width="100%" height="100%" viewBox="0 0 32 33" fill="none" xmlns="http://www.w3.org/2000/svg">
<path fill-rule="evenodd" clip-rule="evenodd" d="M9.39684 0.700726C11.1048 0.62452 11.6508 0.605469 15.9937 0.605469C20.3365 0.605469 20.8826 0.62452 22.5969 0.694375C24.3048 0.770581 25.4667 1.04365 26.4826 1.43738C27.5302 1.85016 28.4254 2.3963 29.3143 3.28537C30.2032 4.17443 30.7556 5.0635 31.1619 6.11767C31.5556 7.1401 31.8286 8.30223 31.9048 10.0042C31.981 11.7124 32 12.2522 32 16.6023C32 20.9524 31.981 21.4922 31.9048 23.2004C31.8286 24.9087 31.5556 26.0708 31.1619 27.0869C30.7492 28.1347 30.2032 29.0302 29.3143 29.9192C28.4254 30.8083 27.5365 31.3608 26.4826 31.7672C25.4603 32.1609 24.2984 32.434 22.5969 32.5102C20.8889 32.5864 20.3492 32.6055 16 32.6055C11.6508 32.6055 11.1111 32.5864 9.40319 32.5102C7.69525 32.434 6.53334 32.1609 5.51747 31.7672C4.46985 31.3544 3.57461 30.8083 2.68572 29.9192C1.79683 29.0302 1.24445 28.1411 0.838096 27.0869C0.444445 26.0645 0.171429 24.9024 0.0952382 23.2004C0.0190476 21.4922 0 20.946 0 16.6023C0 12.2586 0.0190476 11.7124 0.0952382 10.0105C0.171429 8.30223 0.444445 7.1401 0.838096 6.12402C1.2508 5.0762 1.79683 4.18078 2.68572 3.29172C3.57461 2.40265 4.4635 1.85016 5.51747 1.44373C6.53334 1.05 7.69525 0.776931 9.39684 0.700726ZM22.456 3.58354C20.7671 3.50733 20.2655 3.48828 15.9925 3.48828C11.7195 3.48828 11.2179 3.50098 9.52898 3.58354C7.96707 3.65339 7.12262 3.92011 6.55754 4.13603C5.80834 4.4218 5.275 4.77108 4.71627 5.32992C4.15754 5.88876 3.81468 6.4222 3.52262 7.17155C3.3004 7.73674 3.04008 8.58136 2.97024 10.1436C2.89405 11.8328 2.875 12.3345 2.875 16.6083C2.875 20.8822 2.89405 21.3839 2.97024 23.0731C3.04008 24.6353 3.30675 25.4799 3.52262 26.0451C3.80833 26.7945 4.15754 27.3279 4.71627 27.8868C5.275 28.4456 5.80834 28.7885 6.55754 29.0807C7.12262 29.3029 7.96707 29.5633 9.52898 29.6332C11.2179 29.7094 11.7195 29.7284 15.9925 29.7284C20.2655 29.7284 20.7671 29.7094 22.456 29.6332C24.0179 29.5633 24.8623 29.2966 25.4274 29.0807C26.1766 28.7949 26.7099 28.4456 27.2687 27.8868C27.8274 27.3279 28.1703 26.7945 28.4623 26.0451C28.6846 25.4799 28.9449 24.6353 29.0147 23.0731C29.0909 21.3839 29.1099 20.8822 29.1099 16.6083C29.1099 12.3345 29.0909 11.8328 29.0147 10.1436C28.9449 8.58136 28.6782 7.73674 28.4623 7.17155C28.1766 6.4222 27.8274 5.88876 27.2687 5.32992C26.7099 4.77108 26.1766 4.42815 25.4274 4.13603C24.8623 3.91376 24.0179 3.65339 22.456 3.58354ZM7.85938 16.6059C7.85938 12.0331 11.5081 8.33008 15.9997 8.33008C20.4914 8.33008 24.1401 12.0395 24.1401 16.6059C24.1401 21.1724 20.4914 24.8818 15.9997 24.8818C11.5081 24.8818 7.85938 21.1788 7.85938 16.6059ZM10.7148 16.6057C10.7148 19.5732 13.0802 21.9779 15.9992 21.9779C18.9181 21.9779 21.2835 19.5732 21.2835 16.6057C21.2835 13.6381 18.9181 11.2334 15.9992 11.2334C13.0802 11.2334 10.7148 13.6381 10.7148 16.6057ZM26.3869 8.05408C26.3869 9.12056 25.5071 9.98512 24.4219 9.98512C23.3368 9.98512 22.457 9.12056 22.457 8.05408C22.457 6.9876 23.3368 6.12305 24.4219 6.12305C25.5071 6.12305 26.3869 6.9876 26.3869 8.05408Z" fill="currentColor"/>
</svg>