<svg width="100%" height="100%" viewBox="0 0 32 33" fill="none" xmlns="http://www.w3.org/2000/svg">
<path d="M7.20001 32.6055H0.399994V11.2055H7.20001V32.6055ZM3.8 8.20547C1.6 8.20547 0 6.60547 0 4.40547C0 2.20547 1.8 0.605469 3.8 0.605469C6 0.605469 7.60001 2.20547 7.60001 4.40547C7.60001 6.60547 6 8.20547 3.8 8.20547ZM32 32.6055H25.2V21.0055C25.2 17.6055 23.8 16.6055 21.8 16.6055C19.8 16.6055 17.8 18.2055 17.8 21.2055V32.6055H11V11.2055H17.4V14.2055C18 12.8055 20.4 10.6055 23.8 10.6055C27.6 10.6055 31.6 12.8055 31.6 19.4055V32.6055H32Z" fill="currentColor"/>
</svg>