<svg width="100%" height="100%" viewBox="0 0 197 20" fill="none" xmlns="http://www.w3.org/2000/svg" style="margin-bottom: -3px;">
<path d="M129.726 7.17067C129.726 11.5583 126.309 13.7681 121.168 13.7681H113.868C113.708 13.7681 113.574 13.8958 113.574 14.0619V19.1329C113.574 19.2926 113.446 19.4267 113.28 19.4267H108.369C108.209 19.4267 108.075 19.2989 108.075 19.1329V0.867029C108.075 0.707362 108.203 0.573242 108.369 0.573242H121.161C126.309 0.573242 129.726 2.83412 129.726 7.17067ZM124.157 7.27285C124.157 5.36324 122.758 4.74374 120.714 4.74374H113.874C113.715 4.74374 113.58 4.87147 113.58 5.03752V9.48903C113.58 9.64869 113.708 9.78281 113.874 9.78281H120.708C122.752 9.77643 124.157 9.15692 124.157 7.27285ZM20.8141 4.96088H13.5653C13.4056 4.96088 13.2715 5.08862 13.2715 5.25467V19.1265C13.2715 19.2862 13.1438 19.4203 12.9777 19.4203H8.06636C7.90669 19.4203 7.77257 19.2926 7.77257 19.1265V5.24828C7.77257 5.08861 7.64484 4.95449 7.47879 4.95449H0.293787C0.13412 4.95449 0 4.82676 0 4.66071V0.867029C0 0.707362 0.127733 0.573242 0.293787 0.573242H20.8141C20.9738 0.573242 21.1079 0.700975 21.1079 0.867029V4.67348C21.1079 4.83315 20.9738 4.96088 20.8141 4.96088ZM27.5712 0.700976L32.7317 8.34581C32.8466 8.51825 33.0957 8.51825 33.2171 8.34581L38.3519 0.700976C38.403 0.617949 38.4988 0.573242 38.5946 0.573242H43.985C44.2213 0.573242 44.3618 0.841482 44.2213 1.03308L35.7462 12.9889C35.7142 13.04 35.6951 13.0975 35.6951 13.155V19.1265C35.6951 19.2862 35.5673 19.4203 35.4013 19.4203H30.4899C30.3303 19.4203 30.1962 19.2926 30.1962 19.1265V13.155C30.1962 13.0975 30.177 13.0336 30.1451 12.9889L21.67 1.03308C21.5358 0.841482 21.67 0.573242 21.9063 0.573242H27.3285C27.4243 0.573242 27.5138 0.624336 27.5712 0.700976ZM62.9278 15.2881V19.1201C62.9278 19.2798 62.8001 19.4139 62.634 19.4139H45.0515C44.8919 19.4139 44.7578 19.2862 44.7578 19.1201V0.867029C44.7578 0.707362 44.8855 0.573242 45.0515 0.573242H49.9629C50.1226 0.573242 50.2567 0.700975 50.2567 0.867029V14.7133C50.2567 14.873 50.3844 15.0071 50.5505 15.0071H62.6468C62.8001 15.0007 62.9278 15.1285 62.9278 15.2881ZM84.1635 15.5053V19.1201C84.1635 19.2798 84.0358 19.4139 83.8697 19.4139H64.3457C64.186 19.4139 64.0519 19.2862 64.0519 19.1201V0.867029C64.0519 0.707362 64.1796 0.573242 64.3457 0.573242H83.5759C83.7356 0.573242 83.8697 0.700975 83.8697 0.867029V4.48188C83.8697 4.64155 83.742 4.77567 83.5759 4.77567H69.7552C69.5955 4.77567 69.4614 4.9034 69.4614 5.06946V7.5858C69.4614 7.74547 69.5891 7.87959 69.7552 7.87959H81.0468C81.2065 7.87959 81.3406 8.00732 81.3406 8.17337V11.603C81.3406 11.7627 81.2129 11.8968 81.0468 11.8968H69.7616C69.6019 11.8968 69.4678 12.0245 69.4678 12.1906V14.9496C69.4678 15.1093 69.5955 15.2434 69.7616 15.2434H83.8761C84.0294 15.2179 84.1635 15.3456 84.1635 15.5053ZM101.19 19.3117L96.3876 13.5701C96.3301 13.5062 96.2535 13.4679 96.164 13.4679H91.0483C90.8887 13.4679 90.7545 13.5957 90.7545 13.7617V19.1265C90.7545 19.2862 90.6268 19.4203 90.4607 19.4203H85.5813C85.4217 19.4203 85.2876 19.2926 85.2876 19.1265V0.867029C85.2876 0.707362 85.4153 0.573242 85.5813 0.573242H98.5079C103.323 0.573242 107.066 2.7 107.066 7.00461C107.066 10.0063 105.259 11.9543 102.525 12.8803C102.334 12.9442 102.27 13.1869 102.404 13.3466L107.245 18.9349C107.411 19.1201 107.277 19.4139 107.028 19.4139H101.42C101.331 19.4139 101.248 19.3756 101.19 19.3117ZM98.1056 9.48264C100.073 9.48264 101.497 8.94616 101.497 7.11319C101.497 5.28022 100.073 4.74374 98.1056 4.74374H91.0228C90.8631 4.74374 90.729 4.87147 90.729 5.03752V9.19524C90.729 9.35491 90.8567 9.48903 91.0228 9.48903H98.1056V9.48264ZM130.582 19.1201V0.867029C130.582 0.707362 130.71 0.573242 130.876 0.573242H135.787C135.947 0.573242 136.081 0.700975 136.081 0.867029V19.1265C136.081 19.2862 135.953 19.4203 135.787 19.4203H130.876C130.716 19.4139 130.582 19.2862 130.582 19.1201ZM177.256 15.5053V19.1201C177.256 19.2798 177.128 19.4139 176.962 19.4139H157.438C157.278 19.4139 157.144 19.2862 157.144 19.1201V0.867029C157.144 0.707362 157.272 0.573242 157.438 0.573242H176.668C176.828 0.573242 176.962 0.700975 176.962 0.867029V4.48188C176.962 4.64155 176.834 4.77567 176.668 4.77567H162.847C162.688 4.77567 162.553 4.9034 162.553 5.06946V7.5858C162.553 7.74547 162.681 7.87959 162.847 7.87959H174.132C174.292 7.87959 174.426 8.00732 174.426 8.17337V11.603C174.426 11.7627 174.299 11.8968 174.132 11.8968H162.847C162.688 11.8968 162.553 12.0245 162.553 12.1906V14.9496C162.553 15.1093 162.681 15.2434 162.847 15.2434H176.962C177.128 15.2179 177.256 15.3456 177.256 15.5053ZM196.55 15.2881V19.1201C196.55 19.2798 196.422 19.4139 196.256 19.4139H178.667C178.507 19.4139 178.373 19.2862 178.373 19.1201V0.867029C178.373 0.707362 178.501 0.573242 178.667 0.573242H183.578C183.738 0.573242 183.872 0.700975 183.872 0.867029V14.7133C183.872 14.873 184 15.0071 184.166 15.0071H196.262C196.422 15.0007 196.55 15.1285 196.55 15.2881ZM155.892 0.573242H152.379C152.309 0.573242 152.252 0.630722 152.252 0.700976V4.21364C152.252 4.2839 152.309 4.34138 152.379 4.34138H155.892C155.962 4.34138 156.02 4.2839 156.02 4.21364V0.700976C156.02 0.630722 155.962 0.573242 155.892 0.573242ZM152.124 4.34138H148.611C148.541 4.34138 148.484 4.39886 148.484 4.46911V7.98177C148.484 8.05203 148.541 8.10951 148.611 8.10951H152.124C152.194 8.10951 152.252 8.05203 152.252 7.98177V4.46911C152.252 4.39886 152.201 4.34138 152.124 4.34138ZM148.362 8.10951H144.85C144.779 8.10951 144.722 8.16699 144.722 8.23724V11.7499C144.722 11.8202 144.779 11.8776 144.85 11.8776H148.362C148.433 11.8776 148.49 11.8202 148.49 11.7499V8.23724C148.49 8.16699 148.433 8.10951 148.362 8.10951ZM141.101 8.10951H144.613C144.684 8.10951 144.741 8.05203 144.741 7.98177V4.46911C144.741 4.39886 144.684 4.34138 144.613 4.34138H141.101C141.03 4.34138 140.973 4.39886 140.973 4.46911V7.98177C140.973 8.05203 141.03 8.10951 141.101 8.10951ZM140.845 15.6458H137.333C137.262 15.6458 137.205 15.7033 137.205 15.7735V19.2862C137.205 19.3564 137.262 19.4139 137.333 19.4139H140.845C140.915 19.4139 140.973 19.3564 140.973 19.2862V15.7735C140.973 15.7033 140.915 15.6458 140.845 15.6458ZM144.613 11.8776H141.101C141.03 11.8776 140.973 11.9351 140.973 12.0054V15.518C140.973 15.5883 141.03 15.6458 141.101 15.6458H144.613C144.684 15.6458 144.741 15.5883 144.741 15.518V12.0054C144.741 11.9351 144.684 11.8776 144.613 11.8776ZM137.333 4.34138H140.845C140.915 4.34138 140.973 4.2839 140.973 4.21364V0.700976C140.973 0.630722 140.915 0.573242 140.845 0.573242H137.333C137.262 0.573242 137.205 0.630722 137.205 0.700976V4.21364C137.205 4.2839 137.262 4.34138 137.333 4.34138ZM148.618 15.6458H152.13C152.201 15.6458 152.258 15.5883 152.258 15.518V12.0054C152.258 11.9351 152.201 11.8776 152.13 11.8776H148.618C148.547 11.8776 148.49 11.9351 148.49 12.0054V15.518C148.49 15.5883 148.541 15.6458 148.618 15.6458ZM152.379 19.4139H155.892C155.962 19.4139 156.02 19.3564 156.02 19.2862V15.7735C156.02 15.7033 155.962 15.6458 155.892 15.6458H152.379C152.309 15.6458 152.252 15.7033 152.252 15.7735V19.2862C152.252 19.3564 152.309 19.4139 152.379 19.4139Z" fill="currentColor"/>
</svg>