<svg width="100%" height="100%" viewBox="0 0 73 73" fill="none" xmlns="http://www.w3.org/2000/svg">
<path d="M58.5989 0H72.1635C72.4348 0 72.6569 0.222561 72.6569 0.49458V14.0955C72.6569 14.3675 72.4348 14.5901 72.1635 14.5901H58.5989C58.3276 14.5901 58.1057 14.3675 58.1057 14.0955V0.49458C58.1057 0.222561 58.3276 0 58.5989 0Z" fill="currentColor"/>
<path d="M44.0479 14.5901H57.6124C57.9084 14.5901 58.1057 14.8127 58.1057 15.0847V28.6856C58.1057 28.9577 57.8837 29.1802 57.6124 29.1802H44.0479C43.7766 29.1802 43.5546 28.9577 43.5546 28.6856V15.0847C43.5546 14.8127 43.7766 14.5901 44.0479 14.5901Z" fill="currentColor"/>
<path d="M29.5215 29.1802H43.0861C43.3573 29.1802 43.5793 29.4028 43.5793 29.6748V43.2757C43.5793 43.5478 43.3573 43.7703 43.0861 43.7703H29.5215C29.2502 43.7703 29.0282 43.5478 29.0282 43.2757V29.6748C29.0282 29.4028 29.2502 29.1802 29.5215 29.1802Z" fill="currentColor"/>
<path d="M28.6089 29.1802H15.0444C14.7731 29.1802 14.5511 28.9577 14.5511 28.6856V15.0847C14.5511 14.8127 14.7731 14.5901 15.0444 14.5901H28.6089C28.8802 14.5901 29.1022 14.8127 29.1022 15.0847V28.6856C29.1022 28.9577 28.8802 29.1802 28.6089 29.1802Z" fill="currentColor"/>
<path d="M0.493286 58.3604H14.0579C14.3292 58.3604 14.5511 58.583 14.5511 58.855V72.456C14.5511 72.728 14.3292 72.9505 14.0579 72.9505H0.493286C0.221994 72.9505 0 72.728 0 72.456V58.855C0 58.583 0.221994 58.3604 0.493286 58.3604Z" fill="currentColor"/>
<path d="M15.0444 43.7703H28.6089C28.8802 43.7703 29.1022 43.9929 29.1022 44.2649V57.8658C29.1022 58.1379 28.8802 58.3604 28.6089 58.3604H15.0444C14.7731 58.3604 14.5511 58.1379 14.5511 57.8658V44.2649C14.5511 43.9929 14.7731 43.7703 15.0444 43.7703Z" fill="currentColor"/>
<path d="M14.0579 14.5901H0.493286C0.221994 14.5901 0 14.3675 0 14.0955V0.49458C0 0.222561 0.221994 0 0.493286 0H14.0579C14.3292 0 14.5511 0.222561 14.5511 0.49458V14.0955C14.5511 14.3675 14.3292 14.5901 14.0579 14.5901Z" fill="currentColor"/>
<path d="M57.6371 58.3604H44.0726C43.7766 58.3604 43.5793 58.1379 43.5793 57.8658V44.2649C43.5793 43.9929 43.8013 43.7703 44.0726 43.7703H57.6371C57.9084 43.7703 58.1304 43.9929 58.1304 44.2649V57.8658C58.1304 58.1379 57.9084 58.3604 57.6371 58.3604Z" fill="currentColor"/>
<path d="M72.1635 72.9505H58.5989C58.3276 72.9505 58.1057 72.728 58.1057 72.456V58.855C58.1057 58.583 58.3276 58.3604 58.5989 58.3604H72.1635C72.4348 58.3604 72.6569 58.583 72.6569 58.855V72.456C72.6569 72.728 72.4348 72.9505 72.1635 72.9505Z" fill="currentColor"/>
</svg>