<svg width="472" height="180" viewBox="0 0 472 180" fill="none" xmlns="http://www.w3.org/2000/svg">
<path fill-rule="evenodd" clip-rule="evenodd" d="M391.558 0.517742L391.559 69.7337L406.727 69.7336L406.727 49.7656L411.047 49.7655C414.055 49.7655 416.359 50.4055 417.959 51.6855C419.559 52.9014 420.775 54.6294 421.607 56.8694C422.503 59.1094 423.271 61.7974 423.911 64.9334L424.871 69.7334L441.671 69.7332L439.655 61.7652C439.015 59.2692 438.215 56.7412 437.255 54.1812C436.295 51.6213 434.919 49.3813 433.127 47.4613C431.335 45.5413 428.935 44.1653 425.927 43.3334C422.983 42.4374 419.207 42.4374 414.599 43.3335V41.6055C418.247 41.0934 421.511 40.1014 424.391 38.6294C427.335 37.1574 429.863 35.3973 431.975 33.3493C434.087 31.2373 435.879 28.9653 437.351 26.5332C438.823 24.0372 439.975 21.5412 440.807 19.0452L423.143 19.0454C422.311 20.9014 421.319 22.7254 420.167 24.5174C419.079 26.2454 417.831 27.9415 416.423 29.6055C415.079 31.2695 413.575 32.8695 411.911 34.4055C410.311 35.9415 408.583 37.3816 406.727 38.7256L406.726 0.517578L391.558 0.517742ZM234.172 129.479L234.172 161.735L249.628 161.735L249.628 138.695C249.628 135.687 250.012 132.967 250.78 130.535C251.548 128.039 252.7 126.055 254.236 124.583C255.772 123.111 257.724 122.375 260.092 122.375C263.164 122.375 265.436 123.687 266.908 126.311C268.444 128.871 269.212 132.743 269.212 137.927L269.212 161.735L284.764 161.735L284.764 135.335C284.764 126.631 283.26 120.199 280.252 116.039C277.308 111.815 272.828 109.703 266.812 109.703C263.42 109.703 260.636 110.375 258.46 111.719C256.284 112.999 254.524 114.823 253.18 117.191C251.836 119.495 250.716 122.215 249.82 125.351L247.516 125.351C247.836 123.943 248.092 122.503 248.284 121.031C248.54 119.559 248.764 118.119 248.956 116.711C249.212 115.239 249.372 113.831 249.436 112.487C249.564 111.079 249.628 109.735 249.628 108.455L249.628 92.6152L234.172 92.6154L234.172 129.479ZM468 94.0002H407C405.343 94.0002 404 95.3433 404 97.0002V158C404 159.657 405.343 161 407 161H468C469.657 161 471 159.657 471 158V97.0002C471 95.3433 469.657 94.0002 468 94.0002ZM407 93.0002C404.791 93.0002 403 94.791 403 97.0002V158C403 160.209 404.791 162 407 162H468C470.209 162 472 160.209 472 158V97.0002C472 94.791 470.209 93.0002 468 93.0002H407ZM412.595 149.162C412.595 150.859 413.97 152.234 415.667 152.234L454.595 152.234C459.013 152.234 462.595 148.652 462.595 144.234L462.595 105.297C462.594 103.605 461.223 102.234 459.531 102.234C457.831 102.234 456.456 103.618 456.468 105.318L456.687 136.925C456.699 138.717 454.531 139.619 453.268 138.349L419.701 104.573C418.424 103.289 416.342 103.303 415.082 104.604C413.853 105.873 413.87 107.893 415.12 109.142L448.898 142.895C450.164 144.159 449.26 146.322 447.471 146.31L415.688 146.091C413.983 146.079 412.595 147.458 412.595 149.162ZM343.804 138.214L343.804 161.734L359.356 161.734L359.356 138.79C359.676 135.782 360.348 133.286 361.372 131.302C362.46 129.318 363.9 127.846 365.692 126.886C367.548 125.926 369.724 125.446 372.22 125.446C373.116 125.446 374.14 125.542 375.292 125.734C376.508 125.862 377.628 126.182 378.652 126.694L379.227 110.182C378.395 110.054 377.659 109.99 377.019 109.99C376.379 109.926 375.803 109.894 375.291 109.894C371.835 109.894 368.923 110.502 366.556 111.718C364.252 112.934 362.46 114.886 361.18 117.574C359.964 120.198 359.132 123.75 358.684 128.23L356.764 128.23L356.475 111.046L343.803 111.046L343.804 138.214ZM315.756 163.079C311.532 163.079 307.756 162.535 304.428 161.447C301.1 160.295 298.252 158.631 295.884 156.455C293.58 154.279 291.82 151.591 290.603 148.391C289.387 145.191 288.779 141.511 288.779 137.351C288.779 133.319 289.355 129.607 290.507 126.215C291.723 122.823 293.419 119.911 295.595 117.479C297.835 114.983 300.555 113.063 303.755 111.719C307.019 110.375 310.667 109.703 314.699 109.703C318.795 109.702 322.379 110.374 325.451 111.718C328.587 112.998 331.147 114.918 333.131 117.478C335.179 120.038 336.683 123.174 337.643 126.886C338.603 130.534 338.923 134.726 338.603 139.462L303.669 139.716C303.995 143.615 305.08 146.538 306.923 148.487C309.228 150.855 312.14 152.039 315.66 152.039C317.388 152.038 318.828 151.814 319.98 151.366C321.132 150.854 322.06 150.246 322.763 149.542C323.531 148.774 324.107 147.942 324.491 147.046C324.939 146.15 325.291 145.286 325.547 144.454L338.987 147.334C338.475 149.702 337.644 151.846 336.492 153.766C335.404 155.686 333.9 157.35 331.98 158.758C330.124 160.166 327.852 161.222 325.164 161.926C322.54 162.694 319.404 163.078 315.756 163.079ZM324.526 131.447L304.079 131.639C304.31 130.548 304.618 129.54 305.003 128.615C305.963 126.311 307.275 124.551 308.939 123.335C310.667 122.119 312.651 121.511 314.891 121.511C316.747 121.511 318.475 121.99 320.075 122.95C321.675 123.846 322.891 125.318 323.723 127.366C324.207 128.521 324.475 129.881 324.526 131.447ZM219.149 162.984C213.197 162.984 208.813 161.416 205.997 158.28C203.181 155.08 201.773 149.992 201.772 143.016L201.772 123.144L194.572 123.144L194.86 111.144L200.044 111.144C202.092 111.08 203.628 110.76 204.652 110.184C205.74 109.608 206.412 108.52 206.668 106.92L207.916 99.8159L216.652 99.8158L216.652 111.048L228.844 111.048L228.844 123.624L216.652 123.624L216.652 142.344C216.652 144.52 217.165 146.12 218.189 147.144C219.277 148.168 220.909 148.68 223.085 148.68C224.301 148.68 225.453 148.552 226.541 148.296C227.629 148.04 228.525 147.688 229.229 147.24L229.229 161.544C227.181 162.184 225.293 162.568 223.565 162.696C221.901 162.888 220.429 162.984 219.149 162.984ZM159.997 161.448C163.325 162.536 167.101 163.08 171.325 163.08C174.973 163.08 178.109 162.696 180.733 161.928C183.421 161.224 185.693 160.168 187.549 158.76C189.469 157.352 190.973 155.688 192.061 153.768C193.213 151.848 194.045 149.704 194.557 147.336L181.117 144.456C180.861 145.288 180.509 146.152 180.061 147.048C179.677 147.944 179.101 148.776 178.333 149.544C177.629 150.248 176.701 150.856 175.549 151.368C174.397 151.816 172.957 152.04 171.229 152.04C167.709 152.04 164.797 150.856 162.493 148.488C160.65 146.54 159.565 143.616 159.238 139.718L194.173 139.464C194.493 134.728 194.173 130.536 193.213 126.888C192.253 123.176 190.748 120.04 188.7 117.48C186.716 114.92 184.156 113 181.02 111.72C177.948 110.376 174.364 109.704 170.268 109.704C166.236 109.704 162.588 110.376 159.324 111.72C156.124 113.064 153.404 114.984 151.164 117.48C148.988 119.912 147.293 122.824 146.077 126.216C144.925 129.608 144.349 133.32 144.349 137.352C144.349 141.512 144.957 145.192 146.173 148.392C147.389 151.592 149.149 154.28 151.453 156.456C153.821 158.632 156.669 160.296 159.997 161.448ZM159.648 131.64L180.095 131.449C180.044 129.883 179.777 128.522 179.293 127.368C178.461 125.32 177.245 123.848 175.645 122.952C174.044 121.992 172.316 121.512 170.46 121.512C168.221 121.512 166.236 122.12 164.509 123.336C162.845 124.552 161.533 126.312 160.573 128.616C160.187 129.542 159.879 130.55 159.648 131.64ZM114.69 179.497C109.058 179.497 104.418 179.049 100.77 178.153C97.1858 177.321 94.5618 176.041 92.8978 174.313C91.2338 172.649 90.4018 170.601 90.4017 168.169C90.4017 165.225 91.5537 162.825 93.8577 160.969C96.2256 159.113 99.6816 158.057 104.226 157.801L104.226 155.785C100.706 155.785 97.9856 155.433 96.0656 154.729C94.2096 154.025 93.2816 152.713 93.2815 150.793C93.2815 149.001 94.2095 147.369 96.0655 145.897C97.9215 144.425 100.993 143.273 105.281 142.441L105.281 140.425C101.377 140.105 98.2734 138.825 95.9694 136.585C93.6654 134.281 92.5133 131.273 92.5133 127.561C92.5133 124.425 93.4092 121.577 95.2012 119.017C96.9932 116.393 99.6812 114.313 103.265 112.777C106.849 111.177 111.329 110.377 116.705 110.377L143.009 110.377L143.009 121.993L126.977 119.881L126.977 122.185C131.137 122.761 134.113 123.721 135.905 125.065C137.697 126.409 138.593 128.297 138.593 130.729C138.593 133.289 137.697 135.561 135.905 137.545C134.177 139.529 131.713 141.097 128.513 142.249C125.313 143.337 121.505 143.881 117.089 143.881C116.321 143.881 115.457 143.849 114.497 143.785C113.601 143.721 111.905 143.561 109.409 143.305C108.385 144.201 107.585 144.969 107.009 145.609C106.434 146.185 106.146 146.729 106.146 147.241C106.146 147.625 106.306 147.945 106.626 148.201C106.946 148.457 107.394 148.649 107.97 148.777C108.61 148.841 109.282 148.873 109.986 148.873L125.442 148.873C126.722 148.873 128.386 148.969 130.434 149.161C132.546 149.289 134.626 149.769 136.674 150.601C138.786 151.433 140.546 152.777 141.954 154.633C143.426 156.489 144.162 159.145 144.162 162.601C144.162 166.377 143.106 169.513 140.994 172.009C138.882 174.569 135.65 176.457 131.298 177.673C126.946 178.889 121.41 179.497 114.69 179.497ZM116.706 167.209C120.418 167.209 123.298 167.017 125.346 166.633C127.394 166.249 128.802 165.641 129.57 164.809C130.402 163.977 130.818 162.953 130.818 161.737C130.818 160.585 130.594 159.689 130.146 159.049C129.698 158.345 129.122 157.865 128.418 157.609C127.714 157.353 126.978 157.193 126.21 157.129C125.506 157.065 124.898 157.033 124.386 157.033L112.002 157.033C109.634 157.033 107.874 157.609 106.722 158.761C105.634 159.849 105.09 161.129 105.09 162.601C105.09 163.817 105.474 164.745 106.242 165.385C107.01 166.089 108.226 166.569 109.89 166.825C111.618 167.081 113.89 167.209 116.706 167.209ZM116.033 136.201C118.785 136.201 120.833 135.465 122.177 133.993C123.585 132.521 124.289 130.665 124.289 128.425C124.289 125.993 123.585 124.009 122.177 122.473C120.769 120.873 118.753 120.073 116.129 120.073C113.505 120.073 111.457 120.873 109.985 122.473C108.513 124.009 107.777 125.993 107.777 128.425C107.777 129.897 108.097 131.241 108.737 132.457C109.377 133.609 110.305 134.537 111.521 135.241C112.737 135.881 114.241 136.201 116.033 136.201ZM49.3556 160.106C53.3236 162.09 57.8676 163.082 62.9876 163.081C67.9796 163.081 72.4596 162.153 76.4276 160.297C80.4596 158.377 83.6275 155.433 85.9315 151.465C88.2355 147.497 89.3874 142.473 89.3873 136.393C89.3873 130.441 88.2672 125.513 86.0272 121.609C83.7871 117.641 80.6831 114.665 76.7151 112.681C72.7471 110.697 68.203 109.705 63.083 109.705C57.9631 109.706 53.4191 110.698 49.4511 112.682C45.4831 114.602 42.3791 117.546 40.1392 121.514C37.8992 125.418 36.7793 130.346 36.7793 136.298C36.7794 142.25 37.8995 147.21 40.1395 151.178C42.3795 155.146 45.4516 158.122 49.3556 160.106ZM69.2275 150.313C67.6915 151.337 65.7715 151.849 63.4675 151.849C59.9475 151.849 57.1955 150.538 55.2115 147.914C53.2914 145.29 52.3314 141.354 52.3313 136.106C52.3313 132.842 52.7153 130.122 53.4832 127.946C54.2512 125.77 55.4032 124.17 56.9392 123.146C58.5392 122.058 60.4272 121.513 62.6032 121.513C65.1632 121.513 67.2432 122.153 68.8432 123.433C70.5072 124.649 71.7552 126.441 72.5873 128.809C73.4193 131.113 73.8353 133.961 73.8354 137.353C73.8354 140.553 73.4514 143.241 72.6834 145.417C71.9155 147.593 70.7635 149.225 69.2275 150.313ZM24.8235 162.986C18.8715 162.986 14.4875 161.418 11.6715 158.282C8.85542 155.082 7.44736 149.994 7.44729 143.018L7.44707 123.146L0.24707 123.146L0.534941 111.146L5.71894 111.146C7.76694 111.082 9.30294 110.762 10.3269 110.186C11.4149 109.61 12.0869 108.522 12.3429 106.922L13.5908 99.8179L22.3268 99.8178L22.3269 111.05L34.5189 111.05L34.5191 123.626L22.3271 123.626L22.3273 142.346C22.3273 144.522 22.8393 146.122 23.8633 147.146C24.9513 148.17 26.5833 148.682 28.7593 148.682C29.9753 148.682 31.1273 148.554 32.2153 148.298C33.3033 148.042 34.1993 147.69 34.9033 147.242L34.9035 161.546C32.8555 162.186 30.9675 162.57 29.2395 162.698C27.5755 162.89 26.1035 162.986 24.8235 162.986ZM352.915 69.7342L352.915 46.2142L352.915 19.0462L365.587 19.0461L365.875 36.2301L367.795 36.23C368.243 31.75 369.075 28.198 370.291 25.574C371.571 22.886 373.363 20.934 375.667 19.718C378.035 18.5019 380.947 17.8939 384.403 17.8939C384.915 17.8939 385.491 17.9259 386.131 17.9898C386.771 17.9898 387.507 18.0538 388.339 18.1818L387.763 34.6938C386.739 34.1818 385.619 33.8619 384.403 33.7339C383.251 33.5419 382.227 33.4459 381.331 33.4459C378.835 33.4459 376.659 33.926 374.803 34.886C373.011 35.846 371.571 37.318 370.483 39.302C369.459 41.286 368.787 43.782 368.467 46.79L368.467 69.734L352.915 69.7342ZM308.03 68.1027C311.998 70.0866 316.542 71.0786 321.662 71.0785C326.654 71.0785 331.134 70.1504 335.102 68.2944C339.134 66.3743 342.302 63.4303 344.606 59.4623C346.91 55.4942 348.062 50.4702 348.062 44.3902C348.062 38.4382 346.942 33.5102 344.702 29.6063C342.462 25.6383 339.358 22.6623 335.39 20.6784C331.422 18.6944 326.878 17.7025 321.758 17.7025C316.638 17.7026 312.094 18.6946 308.126 20.6787C304.158 22.5987 301.054 25.5427 298.814 29.5108C296.574 33.4148 295.454 38.3428 295.454 44.2948C295.454 50.2468 296.574 55.2068 298.814 59.1748C301.054 63.1427 304.126 66.1187 308.03 68.1027ZM327.902 58.3105C326.366 59.3345 324.446 59.8465 322.142 59.8465C318.622 59.8466 315.87 58.5346 313.886 55.9106C311.966 53.2866 311.006 49.3506 311.006 44.1026C311.006 40.8386 311.39 38.1186 312.158 35.9426C312.926 33.7666 314.078 32.1666 315.614 31.1426C317.214 30.0546 319.102 29.5105 321.278 29.5105C323.838 29.5105 325.918 30.1505 327.518 31.4305C329.182 32.6464 330.43 34.4384 331.262 36.8064C332.094 39.1104 332.51 41.9584 332.51 45.3504C332.51 48.5504 332.126 51.2384 331.358 53.4144C330.59 55.5904 329.438 57.2224 327.902 58.3105ZM225.74 69.7354L213.452 19.0475L229.58 19.0474L235.82 57.6393L237.74 57.6393L245.516 19.0472L263.852 19.047L271.916 57.6389L273.932 57.6389L279.884 19.0468L295.724 19.0466L283.436 69.7348L262.124 69.735L255.116 31.5271L253.292 31.5271L246.764 69.7352L225.74 69.7354ZM164.11 70.1201C166.862 70.7601 169.934 71.08 173.326 71.08C178.382 71.08 182.638 70.4399 186.094 69.1599C189.614 67.8158 192.27 65.9278 194.062 63.4958C195.854 60.9998 196.75 58.0558 196.75 54.6638C196.75 51.7838 196.142 49.4478 194.926 47.6558C193.774 45.7998 192.174 44.3278 190.126 43.2398C188.142 42.0878 185.902 41.1919 183.406 40.5519C180.974 39.8479 178.51 39.2399 176.014 38.728C173.646 38.216 171.598 37.736 169.87 37.288C168.142 36.8401 166.798 36.2961 165.838 35.6561C164.942 34.9521 164.494 34.0881 164.494 33.0641C164.494 31.7841 165.166 30.7601 166.51 29.9921C167.918 29.2241 169.87 28.84 172.366 28.84C174.414 28.84 176.174 29.128 177.646 29.704C179.182 30.2159 180.43 30.9839 181.39 32.0079C182.414 33.0319 183.086 34.2479 183.406 35.6559L195.79 31.2398C194.958 28.4238 193.454 26.0238 191.278 24.0398C189.166 21.9918 186.51 20.4239 183.31 19.3359C180.11 18.2479 176.398 17.704 172.174 17.704C167.438 17.7041 163.406 18.3761 160.078 19.7201C156.814 21.0642 154.35 22.9202 152.686 25.2882C151.022 27.5922 150.19 30.3123 150.19 33.4483C150.19 36.4563 150.83 38.9522 152.11 40.9362C153.454 42.8562 155.214 44.4242 157.39 45.6402C159.566 46.7922 161.902 47.7201 164.398 48.4241C166.894 49.0641 169.358 49.6401 171.79 50.152C174.158 50.6 176.142 51.08 177.742 51.592C179.342 52.0399 180.526 52.5839 181.294 53.2239C182.126 53.7999 182.542 54.5999 182.542 55.6239C182.542 57.0319 181.806 58.1199 180.334 58.8879C178.926 59.5919 176.942 59.944 174.382 59.944C171.694 59.944 169.39 59.5921 167.47 58.8881C165.614 58.1841 164.11 57.2881 162.958 56.2001C161.87 55.0481 161.102 53.9281 160.654 52.8401L149.134 57.9283C149.646 59.9123 150.542 61.7363 151.822 63.4002C153.166 65.0002 154.862 66.3762 156.91 67.5282C158.958 68.6802 161.358 69.5441 164.11 70.1201ZM133.251 26.2484C134.403 23.3044 135.203 20.5524 135.651 17.9923C136.163 15.3683 136.451 12.6803 136.515 9.92834C136.643 7.11234 136.707 4.00834 136.707 0.616338L150.819 0.616185C150.819 5.35219 150.531 9.35219 149.955 12.6162C149.443 15.8802 148.739 18.6002 147.843 20.7762C146.947 22.9522 146.019 24.7762 145.059 26.2483L133.251 26.2484ZM108.458 66.2809C111.274 69.4169 115.658 70.9849 121.61 70.9848C122.89 70.9848 124.362 70.8888 126.026 70.6967C127.754 70.5687 129.642 70.1847 131.69 69.5447L131.689 55.2407C130.985 55.6887 130.089 56.0407 129.001 56.2967C127.913 56.5527 126.761 56.6807 125.545 56.6808C123.369 56.6808 121.737 56.1688 120.649 55.1448C119.625 54.1208 119.113 52.5208 119.113 50.3448L119.113 31.6248L131.305 31.6247L131.305 19.0487L119.113 19.0488L119.113 7.81682L110.377 7.81691L109.129 14.9209C108.873 16.5209 108.201 17.6089 107.113 18.185C106.089 18.761 104.553 19.081 102.505 19.145L97.3211 19.1451L97.0332 31.1451L104.233 31.145L104.233 51.017C104.233 57.993 105.642 63.081 108.458 66.2809ZM73.7859 71.0814C69.5619 71.0815 65.7859 70.5375 62.4579 69.4496C59.1299 68.2976 56.2818 66.6336 53.9138 64.4577C51.6098 62.2817 49.8498 59.5937 48.6337 56.3937C47.4177 53.1937 46.8097 49.5137 46.8096 45.3537C46.8096 41.3217 47.3855 37.6097 48.5375 34.2177C49.7535 30.8257 51.4494 27.9137 53.6254 25.4817C55.8654 22.9856 58.5854 21.0656 61.7853 19.7216C65.0493 18.3775 68.6973 17.7055 72.7293 17.7055C76.8253 17.7054 80.4093 18.3774 83.4813 19.7213C86.6174 21.0013 89.1774 22.9213 91.1614 25.4813C93.2094 28.0412 94.7135 31.1772 95.6735 34.8892C96.6336 38.5372 96.9536 42.7292 96.6336 47.4652L61.6991 47.7193C62.0257 51.6177 63.1106 54.5411 64.9537 56.4895C67.2578 58.8575 70.1698 60.0415 73.6898 60.0414C75.4178 60.0414 76.8578 59.8174 78.0098 59.3694C79.1618 58.8574 80.0898 58.2494 80.7938 57.5454C81.5617 56.7774 82.1377 55.9454 82.5217 55.0494C82.9697 54.1533 83.3217 53.2893 83.5777 52.4573L97.0177 55.3372C96.5058 57.7052 95.6738 59.8492 94.5218 61.7692C93.4338 63.6892 91.9298 65.3532 90.0098 66.7613C88.1539 68.1693 85.8819 69.2253 83.1939 69.9293C80.5699 70.6974 77.4339 71.0814 73.7859 71.0814ZM63.0335 36.6176C62.6479 37.543 62.3398 38.551 62.1091 39.6417L82.5558 39.4504C82.5051 37.8842 82.2377 36.5238 81.7535 35.3694C80.9215 33.3214 79.7055 31.8494 78.1055 30.9534C76.5055 29.9934 74.7775 29.5134 72.9214 29.5135C70.6814 29.5135 68.6975 30.1215 66.9695 31.3375C65.3055 32.5535 63.9935 34.3135 63.0335 36.6176ZM5.71752 6.37809L5.71821 69.7381L8.50221 69.7381L21.1742 69.7379L46.9982 69.7376L46.9981 56.7776L21.1741 56.7779L21.1735 6.37793L5.71752 6.37809Z" fill="#0F1926"/>
</svg>
